# Blender 3.6.0
# www.blender.org
mtllib cubes1.mtl
o Cube
v 176.061676 742.311890 57.466003
v 176.061676 742.311890 260.977844
v 176.061676 945.823730 57.466003
v 176.061676 945.823730 260.977844
v 379.573517 742.311890 57.466003
v 379.573517 742.311890 260.977844
v 379.573517 945.823730 57.466003
v 379.573517 945.823730 260.977844
v 622.176086 442.097900 218.023972
v 493.858368 284.285095 224.861862
v 725.139282 365.216248 375.836731
v 596.821594 207.403503 382.674622
v 741.968384 339.134705 89.706223
v 613.650696 181.321899 96.544113
v 844.931641 262.253113 247.518967
v 716.613892 104.440308 254.356857
v 261.729828 778.989990 416.872864
v 236.788055 705.681030 465.716248
v 337.283844 787.288208 467.909241
v 312.342041 713.979187 516.752563
v 307.023041 724.778320 358.635468
v 282.081238 651.469360 407.478821
v 382.577026 733.076538 409.671814
v 357.635254 659.767517 458.515198
v 447.539551 419.812866 423.853699
v 432.623779 472.947906 496.902771
v 483.476654 491.230225 379.243530
v 468.560852 544.365234 452.292603
v 530.413086 398.406982 456.345947
v 515.497314 451.542023 529.395020
v 566.350159 469.824310 411.735779
v 551.434387 522.959351 484.784851
v 326.312683 652.058716 197.307587
v 345.932281 580.360352 250.752853
v 383.634460 620.144409 133.450974
v 403.254089 548.446045 186.896255
v 257.674042 604.912109 159.256134
v 277.293640 533.213806 212.701416
v 314.995819 572.997803 95.399536
v 334.615448 501.299438 148.844818
vn -1.0000 -0.0000 -0.0000
vn -0.0000 1.0000 -0.0000
vn 1.0000 -0.0000 -0.0000
vn -0.0000 -1.0000 -0.0000
vn -0.0000 -0.0000 -1.0000
vn -0.0000 -0.0000 1.0000
vn -0.5886 0.5059 0.6305
vn 0.5059 -0.3778 0.7754
vn 0.5886 -0.5059 -0.6305
vn -0.5059 0.3778 -0.7754
vn 0.6305 0.7754 -0.0336
vn -0.6305 -0.7754 0.0336
vn -0.4947 0.5921 0.6361
vn 0.8252 0.0906 0.5575
vn 0.4947 -0.5921 -0.6361
vn -0.8252 -0.0906 -0.5575
vn 0.2724 0.8007 -0.5335
vn -0.2724 -0.8007 0.5335
vn -0.9052 0.2338 -0.3549
vn 0.3925 0.7801 -0.4873
vn 0.9052 -0.2338 0.3549
vn -0.3925 -0.7801 0.4873
vn 0.1629 -0.5804 -0.7979
vn -0.1629 0.5804 0.7979
vn 0.7497 0.5150 0.4156
vn 0.6261 -0.3486 -0.6975
vn -0.7497 -0.5150 -0.4156
vn -0.6261 0.3486 0.6975
vn -0.2143 0.7831 -0.5838
vn 0.2143 -0.7831 0.5838
vt -0.000000 0.187374
vt 0.246488 0.187374
vt 0.253717 0.347805
vt 0.007229 0.347805
vt 0.254757 -0.000000
vt 0.501245 0.000000
vt 0.507434 0.187374
vt 0.260946 0.187374
vt 0.500205 0.347805
vt 0.253717 0.347804
vt 0.006190 -0.000000
vt 0.252678 0.000000
vt -0.000000 0.564260
vt -0.000000 0.347804
vt 0.198864 0.417796
vt 0.198864 0.634251
vt 0.397727 0.347804
vt 0.397727 0.564260
vt 0.198864 0.634251
vt 0.198864 0.417796
vt 0.636179 0.595831
vt 0.636179 0.349882
vt 0.881350 0.347805
vt 0.881350 0.593754
vt 0.397727 0.352860
vt 0.636179 0.347805
vt 0.636179 0.593684
vt 0.397727 0.598740
vt 0.397727 0.844690
vt 0.397727 0.598740
vt 0.642898 0.600817
vt 0.642898 0.846767
vt 0.745886 0.250935
vt 0.507434 0.245880
vt 0.507434 0.000000
vt 0.745886 0.005055
vt -0.000000 0.634251
vt 0.246607 0.634320
vt 0.246607 0.880973
vt 0.000000 0.880905
vt 0.642898 0.598808
vt 0.889506 0.598740
vt 0.889506 0.845394
vt 0.642898 0.845462
vt 1.000000 0.709594
vt 0.889506 0.710062
vt 0.889506 0.599208
vt 1.000000 0.598740
vt 0.881350 0.355645
vt 0.953458 0.347805
vt 0.953458 0.458293
vt 0.881350 0.466134
vt 0.889506 0.710062
vt 1.000000 0.710530
vt 1.000000 0.821384
vt 0.889506 0.820916
vt 0.953458 0.584463
vt 0.881350 0.576622
vt 0.881350 0.466134
vt 0.953458 0.473974
vt 0.732757 0.852194
vt 0.732757 0.962569
vt 0.642898 0.955837
vt 0.642898 0.845462
vt 0.732757 0.962569
vt 0.732757 0.852194
vt 0.822615 0.845462
vt 0.822615 0.955837
vt 0.246607 0.755327
vt 0.246607 0.645651
vt 0.328509 0.634251
vt 0.328509 0.743927
vt 0.745886 0.226797
vt 0.745886 0.121075
vt 0.846755 0.135131
vt 0.846755 0.240853
vt 0.745886 0.109676
vt 0.745886 0.000000
vt 0.827787 0.011399
vt 0.827787 0.121075
vt 0.246607 0.875104
vt 0.246607 0.769382
vt 0.347477 0.755326
vt 0.347477 0.861049
vt 0.928227 0.959878
vt 0.822615 0.955519
vt 0.822615 0.845462
vt 0.928227 0.849820
vt 0.503339 0.956824
vt 0.397727 0.961182
vt 0.397727 0.851125
vt 0.503339 0.846767
vt 0.846755 0.121075
vt 0.943819 0.130176
vt 0.943819 0.239545
vt 0.846755 0.230444
vt 0.503339 0.957219
vt 0.503339 0.846767
vt 0.612003 0.848936
vt 0.612003 0.959389
vt 0.924852 0.109369
vt 0.827787 0.118470
vt 0.827787 0.009101
vt 0.924852 -0.000000
vt 0.246607 0.987725
vt 0.246607 0.877273
vt 0.355271 0.875104
vt 0.355271 0.985556
vt 0.107050 0.993217
vt -0.000000 0.991815
vt -0.000000 0.880973
vt 0.107050 0.882375
vt 0.214100 0.991815
vt 0.107050 0.993217
vt 0.107050 0.882375
vt 0.214100 0.880973
s 0
f 1/1/1 2/2/1 4/3/1 3/4/1
f 3/5/2 4/6/2 8/7/2 7/8/2
f 7/8/3 8/7/3 6/9/3 5/10/3
f 5/11/4 6/12/4 2/2/4 1/1/4
f 3/13/5 7/14/5 5/15/5 1/16/5
f 8/17/6 4/18/6 2/19/6 6/20/6
f 9/21/7 10/22/7 12/23/7 11/24/7
f 11/25/8 12/26/8 16/27/8 15/28/8
f 15/29/9 16/30/9 14/31/9 13/32/9
f 13/33/10 14/34/10 10/35/10 9/36/10
f 11/37/11 15/38/11 13/39/11 9/40/11
f 16/41/12 12/42/12 10/43/12 14/44/12
f 17/45/13 18/46/13 20/47/13 19/48/13
f 19/49/14 20/50/14 24/51/14 23/52/14
f 23/53/15 24/54/15 22/55/15 21/56/15
f 21/57/16 22/58/16 18/59/16 17/60/16
f 19/61/17 23/62/17 21/63/17 17/64/17
f 24/65/18 20/66/18 18/67/18 22/68/18
f 25/69/19 26/70/19 28/71/19 27/72/19
f 27/73/20 28/74/20 32/75/20 31/76/20
f 31/77/21 32/78/21 30/79/21 29/80/21
f 29/81/22 30/82/22 26/83/22 25/84/22
f 27/85/23 31/86/23 29/87/23 25/88/23
f 32/89/24 28/90/24 26/91/24 30/92/24
f 33/93/25 34/94/25 36/95/25 35/96/25
f 35/97/26 36/98/26 40/99/26 39/100/26
f 39/101/27 40/102/27 38/103/27 37/104/27
f 37/105/28 38/106/28 34/107/28 33/108/28
f 35/109/29 39/110/29 37/111/29 33/112/29
f 40/113/30 36/114/30 34/115/30 38/116/30
