# Blender 3.6.0
# www.blender.org
mtllib icosphere2.mtl
o Icosphere
v 400.973083 434.180786 422.391235
v 226.037125 535.700867 440.203369
v 366.823517 598.445129 308.035736
v 453.836487 434.180817 226.349625
v 366.823547 269.916443 308.035736
v 226.037140 332.660706 440.203369
v 170.783386 598.445129 255.169662
v 311.569794 535.700867 123.002014
v 311.569824 332.660706 123.002014
v 170.783417 269.916443 255.169647
v 83.770462 434.180756 336.855743
v 136.633850 434.180786 140.814163
vn 0.4071 0.5774 0.7078
vn 0.1013 -0.0000 0.9949
vn 0.9020 0.3568 0.2432
vn 0.9020 -0.3568 0.2432
vn 0.4071 -0.5774 0.7078
vn -0.5877 -0.0000 0.8091
vn -0.0929 0.9342 0.3445
vn 0.7077 0.5774 -0.4071
vn 0.7077 -0.5774 -0.4071
vn -0.0929 -0.9342 0.3445
vn -0.7077 0.5774 0.4071
vn 0.0929 0.9342 -0.3445
vn 0.5877 -0.0000 -0.8091
vn 0.0929 -0.9342 -0.3445
vn -0.7077 -0.5774 0.4071
vn -0.9020 0.3568 -0.2432
vn -0.4071 0.5774 -0.7078
vn -0.1013 -0.0000 -0.9949
vn -0.4071 -0.5774 -0.7078
vn -0.9020 -0.3568 -0.2432
vt 0.972724 0.012485
vt 0.480452 0.979843
vt 0.007016 0.019799
vt 0.973414 0.024922
vt 0.003187 0.007296
vt 0.480452 0.973642
s 0
usemtl Material.002
f 1/1/1 3/3/1 2/2/1
f 2/3/2 6/2/2 1/1/2
f 1/3/3 4/2/3 3/1/3
f 1/3/4 5/2/4 4/1/4
f 1/2/5 6/1/5 5/3/5
f 2/1/6 11/3/6 6/2/6
f 3/3/7 7/2/7 2/1/7
f 4/1/8 8/3/8 3/2/8
f 5/2/9 9/1/9 4/3/9
f 6/2/10 10/1/10 5/3/10
f 2/3/11 7/2/11 11/1/11
f 3/2/12 8/1/12 7/3/12
f 4/3/13 9/2/13 8/1/13
f 5/1/14 10/3/14 9/2/14
f 6/4/15 11/6/15 10/5/15
f 7/2/16 12/1/16 11/3/16
f 8/2/17 12/1/17 7/3/17
f 9/3/18 12/2/18 8/1/18
f 10/3/19 12/2/19 9/1/19
f 11/1/20 12/3/20 10/2/20
